<!-- Emoji Nook app icon — two-emoji variant -->
<!-- (c) Copyright 2026 Liminal HQ, Scott Morris -->
<!-- SPDX-License-Identifier: Apache-2.0 OR MIT -->
<svg xmlns="http://www.w3.org/2000/svg" viewBox="0 0 256 256" width="256" height="256">
  <defs>
    <!-- Dark container — matches Liminal HQ ink base -->
    <linearGradient id="bg" x1="40" y1="32" x2="216" y2="224" gradientUnits="userSpaceOnUse">
      <stop offset="0" stop-color="#0E0D12"/>
      <stop offset="0.55" stop-color="#0A0A0D"/>
      <stop offset="1" stop-color="#08080B"/>
    </linearGradient>

    <!-- Subtle ambient lift -->
    <radialGradient id="bloom" cx="0" cy="0" r="1" gradientUnits="userSpaceOnUse"
      gradientTransform="translate(96 80) rotate(90) scale(210 210)">
      <stop offset="0" stop-color="#FFFFFF" stop-opacity="0.018"/>
      <stop offset="0.55" stop-color="#FFFFFF" stop-opacity="0.006"/>
      <stop offset="1" stop-color="#FFFFFF" stop-opacity="0"/>
    </radialGradient>

    <!-- Liminal brand stroke gradient — plum through orange to amber -->
    <linearGradient id="brandStroke" x1="64" y1="64" x2="192" y2="192" gradientUnits="userSpaceOnUse">
      <stop offset="0" stop-color="#5D3147"/>
      <stop offset="0.55" stop-color="#CF5D22"/>
      <stop offset="1" stop-color="#F19B18"/>
    </linearGradient>

    <!-- Warm glow behind the nook opening -->
    <radialGradient id="nookGlow" cx="0" cy="0" r="1" gradientUnits="userSpaceOnUse"
      gradientTransform="translate(128 132) rotate(90) scale(68 54)">
      <stop offset="0" stop-color="#F7E2BA" stop-opacity="0.3"/>
      <stop offset="0.5" stop-color="#F19B18" stop-opacity="0.12"/>
      <stop offset="1" stop-color="#F19B18" stop-opacity="0"/>
    </radialGradient>

    <filter id="softGlow" x="-40%" y="-40%" width="180%" height="180%" color-interpolation-filters="sRGB">
      <feGaussianBlur stdDeviation="8"/>
    </filter>
  </defs>

  <!-- Container — same as Liminal HQ mark -->
  <rect x="16" y="16" width="224" height="224" rx="56" fill="url(#bg)"/>
  <rect x="16" y="16" width="224" height="224" rx="56" fill="url(#bloom)"/>

  <!-- Warm glow behind the nook -->
  <g filter="url(#softGlow)">
    <ellipse cx="128" cy="132" rx="50" ry="46" fill="url(#nookGlow)"/>
  </g>

  <!-- Nook border — closed rounded rectangle -->
  <rect x="58" y="72" width="140" height="112" rx="16" stroke="url(#brandStroke)" stroke-width="12" stroke-linejoin="round" fill="none"/>

  <!-- Faint grid inside the nook — evokes the emoji picker grid -->
  <g opacity="0.04" stroke="#F7E2BA" stroke-width="0.75">
    <line x1="98" y1="82" x2="98" y2="176"/>
    <line x1="128" y1="82" x2="128" y2="176"/>
    <line x1="158" y1="82" x2="158" y2="176"/>
    <line x1="66" y1="100" x2="190" y2="100"/>
    <line x1="66" y1="128" x2="190" y2="128"/>
    <line x1="66" y1="156" x2="190" y2="156"/>
  </g>

  <!-- Two emoji centred in the nook -->
  <g transform="translate(102, 132)">
    <rect x="-22" y="-22" width="44" height="44" rx="8" fill="#fbbf24" opacity="0.12"/>
    <rect x="-22" y="-22" width="44" height="44" rx="8" fill="none" stroke="#fbbf24" stroke-width="1.5" opacity="0.4"/>
    <circle r="18" fill="#fbbf24" opacity="0.15"/>
    <circle r="18" stroke="#fbbf24" stroke-width="2.5" fill="none" opacity="0.6"/>
    <circle cx="-6" cy="-4" r="2.5" fill="#F7E2BA" opacity="0.85"/>
    <circle cx="6" cy="-4" r="2.5" fill="#F7E2BA" opacity="0.85"/>
    <path d="M-6 4 Q0 10 6 4" stroke="#F7E2BA" stroke-width="2.5" stroke-linecap="round" fill="none" opacity="0.85"/>
  </g>

  <g transform="translate(154, 132)">
    <path d="M0 14 C-6 4 -18 -4 -18 -10 C-18 -16 -13 -19 -9 -19 C-4 -19 -1 -16 0 -13 C1 -16 4 -19 9 -19 C13 -19 18 -16 18 -10 C18 -4 6 4 0 14Z"
          fill="#F7E2BA" opacity="0.8"/>
  </g>
</svg>
